PathFileType	4	(X/Y/Z)	C:\Users\Basilio\Documents\Thesis Gigler\squatting_fais\c3dfiles\039\SLS_pre_back2\markers_experimental.trc
DataRate	CameraRate	NumFrames	NumMarkers	Units	OrigDataRate	OrigDataStartFrame	OrigNumFrames
200.000000	200.000000	4	63	mm	200.000000	1052	1684
Frame#	Time	FHD			LBHD			RBHD			C7			T10			LSHO			LUUPA			LMUPA			LDUPA			LLEP			LMEP			LRAD			LUL			LRFIN			RSHO			RUPA1			RMUPA			RDUPA			RLEP			RMEP			RRAD			RUL			RUFIN			LASI			RASI			USACR			LSACR			RSACR			LTHI1			LTHI2			LTHI3			LTHI4			LMFC			LTIB1			LTIB2			LTIB3			LTIB4			LLMAL			LMMAL			LHEE			LMT1			LMT2			LMT5			RTHI			RTHI2			RTHI3			RTHI4			RLFC			RMFC			RTIB1			RTIB2			RTIB3			RTIB4			RLMAL			RMMAL			RHEE			RMT1			RMT2			RMT5			LLFC			CLAV			*61			*62			
		X1	Y1	Z1	X2	Y2	Z2	X3	Y3	Z3	X4	Y4	Z4	X5	Y5	Z5	X6	Y6	Z6	X7	Y7	Z7	X8	Y8	Z8	X9	Y9	Z9	X10	Y10	Z10	X11	Y11	Z11	X12	Y12	Z12	X13	Y13	Z13	X14	Y14	Z14	X15	Y15	Z15	X16	Y16	Z16	X17	Y17	Z17	X18	Y18	Z18	X19	Y19	Z19	X20	Y20	Z20	X21	Y21	Z21	X22	Y22	Z22	X23	Y23	Z23	X24	Y24	Z24	X25	Y25	Z25	X26	Y26	Z26	X27	Y27	Z27	X28	Y28	Z28	X29	Y29	Z29	X30	Y30	Z30	X31	Y31	Z31	X32	Y32	Z32	X33	Y33	Z33	X34	Y34	Z34	X35	Y35	Z35	X36	Y36	Z36	X37	Y37	Z37	X38	Y38	Z38	X39	Y39	Z39	X40	Y40	Z40	X41	Y41	Z41	X42	Y42	Z42	X43	Y43	Z43	X44	Y44	Z44	X45	Y45	Z45	X46	Y46	Z46	X47	Y47	Z47	X48	Y48	Z48	X49	Y49	Z49	X50	Y50	Z50	X51	Y51	Z51	X52	Y52	Z52	X53	Y53	Z53	X54	Y54	Z54	X55	Y55	Z55	X56	Y56	Z56	X57	Y57	Z57	X58	Y58	Z58	X59	Y59	Z59	X60	Y60	Z60	X61	Y61	Z61	X62	Y62	Z62	X63	Y63	Z63	

1053	5.26	-121.6070251464844	1485.202026367188	-687.9491577148439	-285.4108886718751	1475.1142578125	-804.6348876953127	-253.7554168701172	1476.903930664063	-666.4006347656251	-346.9948120117188	1326.783935546875	-737.7484741210939	-468.4490356445314	1057.67626953125	-772.3320922851565	-282.9966430664063	1326.613037109375	-897.2249755859377	-129.0368194580078	1269.18408203125	-1010.786987304688	-101.6314392089844	1298.4228515625	-980.3376464843752	-59.24895477294923	1270.664306640625	-1011.993286132813	8.64639472961426	1271.009765625	-1007.768493652344	5.078662395477296	1200.418579101563	-975.1103515625002	288.5420532226563	1270.31689453125	-916.2273559570315	289.1692199707032	1278.66748046875	-992.025817871094	365.2736511230469	1312.614135742188	-909.0430908203127	-222.8055877685547	1292.546142578125	-578.8568725585939	-71.56094360351564	1202.662353515625	-491.0393371582032	-42.10157012939454	1237.628295898438	-511.7591247558595	-1.84370231628418	1196.3291015625	-493.3443908691407	62.79653930664064	1208.565185546875	-504.547088623047	62.57699584960939	1145.323364257813	-552.2676391601564	342.9783630371094	1255.552490234375	-614.8810424804689	352.3953857421876	1238.828002929688	-540.9970703125001	422.3679504394532	1299.968994140625	-614.6489868164064	-401.9929504394532	833.1497802734377	-897.4609375000002	-379.4842834472657	847.937438964844	-678.4438476562501	-547.8451538085939	943.0582275390627	-772.5577392578127	-565.1352539062501	912.8386230468752	-796.7998046875002	-559.4967651367189	915.8612060546877	-737.7208862304689	-418.6835937500001	586.8305664062501	-992.0472412109377	-362.4288940429688	524.2054443359376	-1010.703674316406	-316.5065002441407	536.1369628906251	-1004.534057617188	-370.8009033203126	462.185516357422	-998.055114746094	-305.8864135742188	346.7042541503907	-888.1660766601565	-427.4210205078126	296.0805664062501	-950.045593261719	-482.4183349609376	363.5457763671876	-975.6450195312502	-480.2120361328126	322.0204467773438	-962.1539306640627	-544.9021606445314	316.4036865234376	-904.3249511718752	-729.0844116210939	365.6512145996094	-884.0327758789065	-687.2128295898439	354.5840759277344	-808.9248657226565	-740.4802856445314	442.6161499023439	-847.0754394531252	-762.0913696289064	225.9629364013672	-758.1168212890626	-792.9934692382815	226.0219268798829	-789.5715942382815	-840.560974121094	268.3186950683594	-818.8637695312502	-303.7886657714844	646.6765747070314	-613.9240722656251	-237.7702636718751	636.6696166992189	-619.5416870117189	-217.0836791992188	661.9216918945314	-629.0181274414064	-201.8755340576172	560.2933959960939	-631.9066772460939	-156.9495544433594	457.8063049316407	-676.4971923828126	-140.39404296875	474.5934143066407	-788.444519042969	-193.2828826904297	271.4656372070313	-732.6876220703126	-295.1598205566407	240.7604522705079	-715.3455810546876	-256.7560729980469	217.876449584961	-728.4748535156251	-264.3178405761719	173.7542419433594	-769.3257446289065	-360.6723632812501	114.1059265136719	-747.7913208007814	-336.8018493652344	130.8881072998047	-835.3677978515627	-440.4335327148439	96.78460693359378	-797.1616210937502	-215.7058410644532	51.55589294433595	-811.8008422851565	-218.1097106933594	57.87913513183595	-765.2327880859376	-273.0060119628907	40.58082962036134	-713.5944213867189	-341.1990356445313	387.9009399414064	-996.276306152344	-222.0857391357422	1234.175170898438	-751.2472534179689	nan	nan	nan	nan	nan	nan	
1054	5.265	-121.8113861083985	1486.156982421875	-687.6405639648439	-285.9336242675782	1475.811279296875	-804.4983520507815	-254.1703491210938	1477.716796875	-666.2066040039064	-347.1948242187501	1327.386840820313	-737.4785766601564	-468.5150756835939	1058.301025390625	-772.1509399414065	-283.3834228515626	1327.425415039063	-897.0642089843752	-129.074447631836	1269.919067382813	-1010.581420898438	-101.7520217895508	1299.161499023438	-980.1648559570315	-59.37926483154298	1271.482666015625	-1011.839721679688	9.022876739501955	1271.432250976563	-1007.654907226563	4.955092430114747	1201.159545898438	-974.897644042969	288.3204650878907	1271.24853515625	-915.9810180664065	289.0750427246094	1279.719482421875	-991.825622558594	365.1414489746094	1313.84326171875	-908.9519042968752	-223.1932220458985	1293.205932617188	-578.5787353515626	-71.50283050537111	1203.2412109375	-490.8067016601564	-42.15803146362305	1238.290893554688	-511.6478881835939	-2.21500849723816	1197.043334960938	-493.3598022460939	62.80564498901369	1209.154663085938	-504.5117492675782	62.59087371826173	1146.478149414063	-551.9166870117189	342.3328857421876	1256.6611328125	-614.8261718750001	351.9234619140626	1239.63671875	-541.2199707031251	422.2321777343751	1300.85693359375	-614.4872436523439	-401.8735961914064	833.6685791015627	-897.3449707031252	-379.5133666992188	848.5917968750002	-678.2556152343751	-547.8953247070314	943.258239746094	-772.4722290039065	-564.9524536132814	913.3220214843752	-796.7602539062502	-559.5070800781251	916.5960083007815	-737.6659545898439	-418.6121520996095	587.4482421875001	-992.1077880859377	-362.4243469238282	524.9251708984376	-1010.843017578125	-316.4599609375001	536.6774902343751	-1004.574157714844	-370.7522277832032	462.9123535156251	-998.1900024414065	-306.0208129882813	347.2772521972657	-888.4554443359377	-427.518524169922	296.6275939941407	-950.4050292968752	-482.5661010742189	364.4069213867188	-975.8922119140627	-480.3096618652345	322.7264709472657	-962.506530761719	-545.0440063476564	317.0022277832032	-904.7060546875002	-729.1865844726564	366.4585876464844	-884.3598632812502	-687.3792114257814	355.1976318359376	-809.1254882812502	-740.5014648437501	443.1388244628907	-847.258972167969	-762.3781127929689	226.7269897460938	-759.0185546875001	-793.2456054687502	226.8752441406251	-790.2784423828127	-841.1035156250002	269.5999450683594	-819.4392089843752	-303.8360900878907	647.0883178710939	-613.6987304687501	-237.9798126220704	637.0112915039064	-619.2991333007814	-217.1979370117188	662.1519165039064	-628.7319335937501	-202.1589660644532	560.5952148437501	-631.6452636718751	-157.435287475586	458.4455566406251	-676.2267456054689	-140.7621307373047	474.7087402343751	-787.9614257812502	-193.5513763427735	271.7278137207032	-732.4257202148439	-295.3025207519532	240.8616027832032	-715.0974731445314	-256.9247436523438	217.9954223632813	-728.2244873046876	-264.4078369140626	173.782699584961	-768.8872680664065	-360.7013854980469	114.1143188476563	-747.5546264648439	-336.7541503906251	131.0113067626953	-835.1353149414065	-440.4248352050782	96.80242919921878	-797.090759277344	-215.6833038330079	51.62666320800783	-811.7195434570315	-218.0775146484376	57.76828002929689	-765.1763305664064	-273.0410766601563	40.53646469116212	-713.6049804687501	-341.0476379394532	388.4199829101564	-996.468444824219	-221.5842590332032	1235.485473632813	-751.0213012695314	nan	nan	nan	nan	nan	nan	
1055	5.27	-122.1344909667969	1487.176635742188	-687.4907836914064	-286.4205627441407	1476.477661132813	-804.0286254882815	-254.4918060302735	1478.324829101563	-665.9324340820314	-347.4221496582032	1327.979248046875	-737.1852416992189	-468.2184143066407	1058.966186523438	-771.8716430664065	-283.7665710449219	1328.093383789063	-896.706237792969	-129.1672973632813	1270.769409179688	-1010.380432128906	-101.9148559570313	1299.95947265625	-980.1093750000002	-59.46295166015626	1272.324829101563	-1011.662414550781	8.536497116088869	1272.468017578125	-1007.50146484375	4.894037723541261	1202.080200195313	-974.6783447265627	288.0447692871094	1272.26904296875	-915.6422119140627	289.0187988281251	1280.575561523438	-991.5625610351565	364.9076538085938	1314.890380859375	-908.618347167969	-223.3291168212891	1293.827392578125	-578.3684692382814	-71.71746826171876	1203.952392578125	-490.6587829589845	-42.25104904174805	1238.993286132813	-511.4623107910157	-2.180381774902344	1197.69873046875	-493.0541381835939	62.58638000488283	1209.838500976563	-504.3749084472657	62.41769790649415	1147.202026367188	-551.8114624023439	342.1844482421876	1257.485473632813	-614.7874145507814	351.8748168945313	1240.2451171875	-541.1535034179689	421.9887084960939	1301.754638671875	-614.3150634765626	-401.7378845214845	834.1141357421877	-897.2996215820315	-379.3918151855469	849.1113281250002	-678.0962524414064	-547.7619628906251	944.2698364257815	-772.4578247070315	-564.8843994140626	913.9155883789065	-796.6785278320315	-559.2935180664064	917.035827636719	-737.5481567382814	-418.6013488769532	588.0654907226564	-992.1580810546877	-362.4253540039063	525.6531372070314	-1010.86572265625	-316.7991943359376	537.6580810546876	-1004.798034667969	-370.7597656250001	463.542449951172	-998.3201904296877	-306.1274414062501	347.6972045898438	-888.802429199219	-427.7443847656251	297.3291320800782	-950.7246704101565	-482.6100463867189	365.0536193847657	-976.2222290039065	-480.4445800781251	323.3810729980469	-962.9085693359377	-545.3603515625001	317.6784057617188	-905.1333618164065	-729.3517456054689	367.2405090332032	-884.742858886719	-687.5548095703126	355.9172363281251	-809.4880371093752	-740.5596313476564	443.7662963867189	-847.3891601562502	-762.7166137695314	227.2169494628907	-759.4138183593751	-793.6666259765627	227.6269531250001	-791.121276855469	-841.210876464844	269.9386596679688	-819.9841918945315	-303.9190673828126	647.4853515625001	-613.4887695312501	-238.138412475586	637.4303588867189	-618.9686279296876	-217.2967834472657	662.4421386718751	-628.3770751953126	-202.3473663330079	560.9016723632814	-631.2645263671876	-157.7254333496094	458.7781066894532	-675.8471069335939	-140.9746398925782	474.8542785644532	-787.507751464844	-193.8048553466797	271.9294433593751	-732.0117797851564	-295.4740600585938	241.0289306640626	-714.8696899414064	-257.0958557128907	218.1052398681641	-728.0129394531251	-264.5139770507813	174.0108489990235	-768.6519775390627	-360.8071594238282	114.0565338134766	-747.4474487304689	-336.6322326660157	131.1216888427735	-834.934753417969	-440.3881835937501	96.84837341308597	-797.0662231445315	-215.7230224609376	51.6529884338379	-811.7019042968752	-218.0716400146485	57.73080825805665	-765.1225585937501	-273.0738525390626	40.45336532592774	-713.4910888671876	-341.2489318847657	389.0815429687501	-996.627868652344	-221.682846069336	1236.134033203125	-750.8262329101564	nan	nan	nan	nan	nan	nan	
1056	5.275	-122.5176010131836	1487.696533203125	-687.1768188476564	-286.8238830566407	1477.18896484375	-803.5895996093752	-254.7170715332032	1479.091796875	-665.7067260742189	-347.5823974609376	1328.730590820313	-737.0626220703126	-468.3019104003907	1059.594482421875	-771.821716308594	-283.9096679687501	1328.888671875	-896.3999633789065	-129.1800994873047	1271.533569335938	-1010.284484863281	-102.0003433227539	1300.703979492188	-979.8733520507815	-59.45277023315431	1272.92822265625	-1011.453063964844	8.459269523620607	1273.233764648438	-1007.356689453125	5.201390266418458	1202.487060546875	-974.3929443359377	288.1125183105469	1273.2578125	-915.4744262695315	288.8691711425782	1281.42626953125	-991.2362060546877	364.8394165039063	1315.563232421875	-908.238464355469	-223.5458374023438	1294.518798828125	-578.1177368164064	-71.98959350585939	1204.604858398438	-490.5536193847657	-42.63620376586915	1239.67724609375	-511.1627502441407	-2.320146560668946	1198.2744140625	-493.0259094238282	62.45893478393556	1210.627319335938	-504.286346435547	62.37619400024415	1147.875854492188	-551.8275756835939	341.6738281250001	1258.732055664063	-614.5171508789064	351.6119079589844	1241.1474609375	-541.0654907226564	421.8831481933595	1302.610961914063	-614.3489379882814	-401.5748291015626	834.6990966796877	-897.1074218750002	-379.2939758300782	849.5187988281252	-678.0863037109376	-547.7191772460939	944.6340942382815	-772.3787231445315	-564.8703002929689	914.377136230469	-796.5780029296877	-559.2040405273439	917.6370849609377	-737.6868896484376	-418.5054626464845	588.8679809570314	-992.2034912109377	-362.4378967285157	526.2639160156251	-1011.009765625	-316.8054809570313	538.1333618164064	-1004.901489257813	-371.3244934082032	464.6267395019532	-998.5108032226565	-306.1708984375001	348.2702026367188	-889.1770019531252	-428.117889404297	298.1282958984376	-951.076599121094	-482.7422485351564	365.7388305664063	-976.5294189453127	-480.7083129882814	324.1806640625001	-963.3391113281252	-545.4470214843751	318.3239746093751	-905.4202880859377	-729.5709228515626	367.9389343261719	-885.204528808594	-687.7229003906251	356.4858093261719	-809.839294433594	-740.7082519531251	444.5963745117189	-847.6757812500002	-763.1405639648439	227.519760131836	-760.0631103515626	-793.9073486328127	228.2744598388672	-791.743591308594	-841.4368286132815	270.7365722656251	-820.4863281250002	-304.0945129394532	647.8518676757814	-613.3181152343751	-238.2840118408204	637.7268066406251	-618.7247314453126	-217.4381866455079	662.7590942382814	-627.9578247070314	-202.3745422363282	561.2444458007814	-631.0720825195314	-157.9869689941407	458.9844360351564	-675.5136108398439	-141.0685577392578	475.0093688964845	-787.186462402344	-193.9860382080079	271.9994812011719	-731.6226806640626	-295.5627746582032	241.1134033203126	-714.5833740234376	-257.2396545410157	218.2200622558594	-727.7728881835939	-264.5322265625001	174.1186828613282	-768.4424438476565	-360.8726196289063	114.0663070678711	-747.2622680664064	-336.5742797851563	131.2449798583985	-834.681823730469	-440.4090576171876	96.87827301025393	-796.9717407226565	-215.6655883789063	51.66350555419923	-811.6663818359377	-218.0977783203126	57.63168716430665	-765.0332641601564	-273.0982360839844	40.43809127807618	-713.4758911132814	-341.5105895996094	390.238739013672	-997.1038208007815	-221.9404449462891	1236.51513671875	-750.6101074218751	nan	nan	nan	nan	nan	nan	
